<svg width="20" height="20" viewBox="0 0 20 20" fill="none" xmlns="http://www.w3.org/2000/svg">
<path d="M15.9687 11.1886L15.9687 4.03165L12.3349 7.68437C13.6616 6.35062 15.9389 7.28027 15.9533 9.16147L15.9687 11.1886Z" fill="white"/>
<path d="M15.9687 4.03165H11.1974H8.81176L10.827 4.03894C12.7252 4.04581 13.6736 6.33868 12.3349 7.68437L15.9687 4.03165Z" fill="white"/>
<path d="M5.55424 14.4461L12.3349 7.68437M15.9687 4.03165L11.1974 4.03165L8.81176 4.03165M15.9687 4.03165L15.9687 11.1886M15.9687 4.03165L12.3349 7.68437M6.42612 4.03165L8.81176 4.03165M15.9687 13.5742L15.9687 11.1886M8.81176 4.03165L10.827 4.03894C12.7252 4.04581 13.6736 6.33868 12.3349 7.68437V7.68437M15.9687 11.1886L15.9533 9.16147C15.9389 7.28027 13.6616 6.35062 12.3349 7.68437V7.68437" stroke="white" stroke-width="2" stroke-linecap="round" stroke-linejoin="round"/>
</svg>
