<svg width="40" height="36" viewBox="0 0 40 36" fill="none" xmlns="http://www.w3.org/2000/svg">
<rect width="40" height="36" rx="18" fill="white" fill-opacity="0.5"/>
<path d="M20 10.6265C22.6506 10.6265 23.0121 10.6265 24.0964 10.6265C25.0602 10.6265 25.5422 10.8434 25.9036 10.9518C26.3855 11.1687 26.747 11.2771 27.1084 11.6024C27.4699 11.9277 27.7108 12.253 27.8313 12.6867C27.9518 13.012 28.0723 13.4458 28.1928 14.3133C28.1928 15.2892 28.1928 15.506 28.1928 18C28.1928 20.494 28.1928 20.7108 28.1928 21.6867C28.1928 22.5542 27.9518 22.988 27.8313 23.3133C27.5904 23.747 27.4699 24.0723 27.1084 24.3976C26.747 24.7229 26.3855 24.9398 25.9036 25.0482C25.5422 25.1566 25.0602 25.2651 24.0964 25.3735C23.0121 25.3735 22.7711 25.3735 20 25.3735C17.2289 25.3735 16.988 25.3735 15.9036 25.3735C14.9398 25.3735 14.4578 25.1566 14.0964 25.0482C13.6145 24.8313 13.253 24.7229 12.8916 24.3976C12.5301 24.0723 12.2892 23.747 12.1687 23.3133C12.0482 22.988 11.9277 22.5542 11.8072 21.6867C11.8072 20.7108 11.8072 20.494 11.8072 18C11.8072 15.506 11.8072 15.2892 11.8072 14.3133C11.8072 13.4458 12.0482 13.012 12.1687 12.6867C12.4096 12.253 12.5301 11.9277 12.8916 11.6024C13.253 11.2771 13.6145 11.0602 14.0964 10.9518C14.4578 10.8434 14.9398 10.7349 15.9036 10.6265C16.988 10.6265 17.3494 10.6265 20 10.6265ZM20 9C17.2289 9 16.988 9 15.9036 9C14.8193 9 14.0964 9.21687 13.494 9.43374C12.8916 9.6506 12.2892 9.9759 11.6867 10.5181C11.0843 11.0602 10.8434 11.494 10.4819 12.1446C10.241 12.6867 10.1205 13.3374 10 14.3133C10 15.2892 10 15.6145 10 18C10 20.494 10 20.7108 10 21.6867C10 22.6627 10.241 23.3133 10.4819 23.8554C10.7229 24.3976 11.0843 24.9398 11.6867 25.4819C12.2892 26.0241 12.7711 26.241 13.494 26.5663C14.0964 26.7831 14.8193 26.8916 15.9036 27C16.988 27 17.3494 27 20 27C22.6506 27 23.0121 27 24.0964 27C25.1807 27 25.9036 26.7831 26.506 26.5663C27.1084 26.3494 27.7108 26.0241 28.3133 25.4819C28.9157 24.9398 29.1566 24.506 29.5181 23.8554C29.759 23.3133 29.8795 22.6627 30 21.6867C30 20.7108 30 20.3855 30 18C30 15.6145 30 15.2892 30 14.3133C30 13.3374 29.759 12.6867 29.5181 12.1446C29.2771 11.6024 28.9157 11.0602 28.3133 10.5181C27.7108 9.9759 27.2289 9.75904 26.506 9.43374C25.9036 9.21687 25.1807 9.10843 24.0964 9C23.0121 9 22.7711 9 20 9Z" fill="white"/>
<path d="M20 13.3373C17.1084 13.3373 14.8193 15.3976 14.8193 18C14.8193 20.6024 17.1084 22.6627 20 22.6627C22.8916 22.6627 25.1807 20.6024 25.1807 18C25.1807 15.3976 22.8916 13.3373 20 13.3373ZM20 21.0361C18.1928 21.0361 16.6265 19.7349 16.6265 18C16.6265 16.3735 18.0723 14.9639 20 14.9639C21.8072 14.9639 23.3735 16.2651 23.3735 18C23.3735 19.6265 21.8072 21.0361 20 21.0361Z" fill="white"/>
<path d="M25.3012 14.3133C25.9666 14.3133 26.506 13.8278 26.506 13.2289C26.506 12.6301 25.9666 12.1446 25.3012 12.1446C24.6358 12.1446 24.0964 12.6301 24.0964 13.2289C24.0964 13.8278 24.6358 14.3133 25.3012 14.3133Z" fill="white"/>
</svg>
