<svg width="30" height="31" viewBox="0 0 30 31" fill="none" xmlns="http://www.w3.org/2000/svg">
<rect width="30" height="31" rx="15" fill="white" fill-opacity="0.3"/>
<path d="M20.9451 9.34841C19.4634 7.82263 17.4878 6.97498 15.4024 6.97498C11.0671 6.97498 7.55488 10.5916 7.55488 15.056C7.55488 16.4687 7.93902 17.8815 8.59756 19.0682L7.5 23.25L11.6707 22.1198C12.8232 22.7414 14.0854 23.0804 15.4024 23.0804C19.7378 23.0804 23.25 19.4638 23.25 14.9995C23.1951 12.9086 22.4268 10.8742 20.9451 9.34841ZM19.189 17.938C19.0244 18.3901 18.2561 18.8422 17.872 18.8987C17.5427 18.9552 17.1037 18.9552 16.6646 18.8422C16.3902 18.7291 16.0061 18.6161 15.5671 18.3901C13.5915 17.5424 12.3293 15.508 12.2195 15.3385C12.1098 15.2255 11.3963 14.2648 11.3963 13.2476C11.3963 12.2304 11.8902 11.7784 12.0549 11.5523C12.2195 11.3263 12.439 11.3263 12.6037 11.3263C12.7134 11.3263 12.878 11.3263 12.9878 11.3263C13.0976 11.3263 13.2622 11.2698 13.4268 11.6653C13.5915 12.0609 13.9756 13.0781 14.0305 13.1346C14.0854 13.2476 14.0854 13.3607 14.0305 13.4737C13.9756 13.5867 13.9207 13.6997 13.811 13.8127C13.7012 13.9258 13.5915 14.0953 13.5366 14.1518C13.4268 14.2648 13.3171 14.3778 13.4268 14.5474C13.5366 14.7734 13.9207 15.395 14.5244 15.9601C15.2927 16.6383 15.8963 16.8643 16.1159 16.9773C16.3354 17.0903 16.4451 17.0338 16.5549 16.9208C16.6646 16.8078 17.0488 16.3557 17.1585 16.1297C17.2683 15.9036 17.4329 15.9601 17.5976 16.0166C17.7622 16.0732 18.75 16.5817 18.9146 16.6948C19.1341 16.8078 19.2439 16.8643 19.2988 16.9208C19.3537 17.0903 19.3537 17.4859 19.189 17.938Z" fill="white"/>
</svg>
