<svg width="31" height="31" viewBox="0 0 31 31" fill="none" xmlns="http://www.w3.org/2000/svg">
<rect width="31" height="31" rx="15.5" fill="white" fill-opacity="0.3"/>
<path d="M20.3468 7.39806C17.3929 6.83395 14.3253 6.83395 11.3714 7.39806C10.0649 7.68011 8.41747 9.25962 8.13344 10.5007C7.62219 12.9263 7.62219 15.4084 8.13344 17.8341C8.47428 19.0752 10.1217 20.6547 11.3714 20.9367C11.4282 20.9367 11.485 20.9931 11.485 21.0495V24.6034C11.485 24.7727 11.7122 24.8855 11.8259 24.7163L13.53 22.9675C13.53 22.9675 14.8934 21.5572 15.1206 21.3316C15.1206 21.3316 15.1774 21.2752 15.2342 21.2752C16.9384 21.3316 18.6994 21.1624 20.4036 20.8803C21.7101 20.5983 23.3575 19.0187 23.6416 17.7777C24.1528 15.352 24.1528 12.8699 23.6416 10.4443C23.3007 9.25962 21.6533 7.68011 20.3468 7.39806ZM20.4036 18.0033C20.1196 18.5675 19.7787 19.0187 19.2107 19.3008C19.0402 19.3572 18.8698 19.4136 18.6994 19.47C18.4722 19.4136 18.3018 19.3572 18.1313 19.3008C16.3135 18.5675 14.6094 17.5521 13.246 16.0854C12.5075 15.2392 11.8827 14.2802 11.3714 13.2648C11.1442 12.7571 10.9169 12.3058 10.7465 11.7981C10.5761 11.3468 10.8601 10.8955 11.1442 10.5571C11.4282 10.2186 11.769 9.99297 12.1667 9.82373C12.4507 9.6545 12.7348 9.76732 12.962 9.99297C13.4164 10.5571 13.8709 11.1212 14.2117 11.7417C14.4389 12.1366 14.3821 12.5879 13.9845 12.8699C13.8709 12.9263 13.8141 12.9828 13.7005 13.0956C13.6437 13.152 13.53 13.2084 13.4732 13.3212C13.3596 13.4905 13.3596 13.6597 13.4164 13.8289C13.8709 15.1264 14.723 16.1418 16.0295 16.7059C16.2567 16.8187 16.4272 16.8751 16.7112 16.8751C17.1088 16.8187 17.2793 16.3674 17.5633 16.1418C17.8473 15.9161 18.1882 15.9161 18.529 16.0854C18.813 16.2546 19.0971 16.4802 19.4379 16.7059C19.7219 16.9315 20.006 17.1008 20.29 17.3264C20.4604 17.4392 20.5172 17.7213 20.4036 18.0033ZM18.0177 13.7725C17.9041 13.7725 17.9609 13.7725 18.0177 13.7725C17.7905 13.7725 17.7337 13.6597 17.6769 13.4905C17.6769 13.3776 17.6769 13.2084 17.6201 13.0956C17.5633 12.8699 17.4497 12.6443 17.2224 12.4751C17.1088 12.4186 16.9952 12.3622 16.8816 12.3058C16.7112 12.2494 16.5976 12.2494 16.4272 12.2494C16.2567 12.193 16.1999 12.0802 16.1999 11.9109C16.1999 11.7981 16.3704 11.6853 16.484 11.6853C17.3929 11.7417 18.0745 12.2494 18.1882 13.3212C18.1882 13.3776 18.1882 13.4905 18.1882 13.5469C18.1882 13.6597 18.1313 13.7725 18.0177 13.7725ZM17.4497 11.2904C17.1656 11.1776 16.8816 11.0648 16.5408 11.0084C16.4272 11.0084 16.2567 10.952 16.1431 10.952C15.9727 10.952 15.8591 10.8391 15.9159 10.6699C15.9159 10.5007 16.0295 10.3878 16.1999 10.4443C16.768 10.5007 17.2793 10.6135 17.7905 10.8391C18.813 11.3468 19.3811 12.193 19.5515 13.3212C19.5515 13.3776 19.5515 13.434 19.5515 13.4905C19.5515 13.6033 19.5515 13.7161 19.5515 13.8853C19.5515 13.9417 19.5515 13.9982 19.5515 14.0546C19.4947 14.2802 19.0971 14.3366 19.0402 14.0546C19.0402 13.9982 18.9834 13.8853 18.9834 13.8289C18.9834 13.3212 18.8698 12.8135 18.6426 12.3622C18.3018 11.8545 17.9041 11.5161 17.4497 11.2904ZM20.5172 14.6751C20.3468 14.6751 20.2332 14.5059 20.2332 14.3366C20.2332 13.9982 20.1764 13.6597 20.1196 13.3212C19.8923 11.5161 18.4154 10.0494 16.6544 9.76732C16.3704 9.71091 16.0863 9.71091 15.8591 9.6545C15.6887 9.6545 15.4615 9.6545 15.4046 9.42886C15.3478 9.25962 15.5183 9.09039 15.6887 9.09039C15.7455 9.09039 15.8023 9.09039 15.8023 9.09039C15.9159 9.09039 18.1313 9.1468 15.8023 9.09039C18.1882 9.1468 20.1764 10.7263 20.574 13.0956C20.6308 13.4905 20.6876 13.8853 20.6876 14.3366C20.8012 14.5059 20.6876 14.6751 20.5172 14.6751Z" fill="white"/>
</svg>
