<svg width="36" height="36" viewBox="0 0 36 36" fill="none" xmlns="http://www.w3.org/2000/svg">
<g clip-path="url(#clip0_20_389)">
<rect width="36" height="36" rx="18" fill="white" fill-opacity="0.5"/>
<path d="M26.9786 12.8283C25.7246 12.8283 24.522 12.3301 23.6353 11.4434C22.7487 10.5567 22.2505 9.35407 22.2506 8.1001H18.8726V21.3277C18.8719 21.9308 18.6815 22.5184 18.3283 23.0072C17.975 23.496 17.4769 23.8613 16.9045 24.0512C16.3321 24.2411 15.7145 24.246 15.1391 24.0653C14.5638 23.8845 14.0599 23.5273 13.6989 23.0442C13.3379 22.561 13.1381 21.9766 13.1279 21.3736C13.1176 20.7706 13.2974 20.1797 13.6418 19.6846C13.9861 19.1895 14.4776 18.8153 15.0464 18.6151C15.6153 18.4149 16.2328 18.3988 16.8113 18.5692V15.2854C15.5818 15.1197 14.3311 15.3329 13.226 15.8967C12.1209 16.4605 11.2141 17.348 10.6267 18.4407C10.0393 19.5335 9.79924 20.7794 9.93858 22.0121C10.0779 23.2449 10.59 24.4058 11.4065 25.3398C12.223 26.2738 13.305 26.9366 14.5081 27.2395C15.7111 27.5424 16.978 27.471 18.1394 27.035C19.3008 26.599 20.3016 25.819 21.0081 24.7992C21.7146 23.7794 22.0931 22.5683 22.0932 21.3277L22.1918 14.6416C23.5797 15.6605 25.2571 16.2087 26.9789 16.2061L26.9786 12.8283Z" fill="white"/>
</g>
<defs>
<clipPath id="clip0_20_389">
<rect width="36" height="36" fill="white"/>
</clipPath>
</defs>
</svg>
