<svg width="40" height="36" viewBox="0 0 40 36" fill="none" xmlns="http://www.w3.org/2000/svg">
<rect width="40" height="36" rx="18" fill="white" fill-opacity="0.5"/>
<path fill-rule="evenodd" clip-rule="evenodd" d="M11.2625 24.3511C10.8702 24.2467 10.5123 24.0609 10.219 23.8094C9.9256 23.5579 9.7054 23.2481 9.57695 22.9061C8.84292 21.1386 8.62543 13.7582 10.0391 12.3013C10.5096 11.8273 11.1739 11.5355 11.8878 11.4892C15.6802 11.1309 27.3975 11.1787 28.7432 11.6086C29.1217 11.7165 29.4675 11.8982 29.7547 12.1402C30.0419 12.3822 30.263 12.6781 30.4015 13.0059C31.2035 14.8331 31.2307 21.473 30.2928 23.2285C30.044 23.6855 29.6275 24.0557 29.1102 24.2795C27.6965 24.9005 13.1383 24.8885 11.2625 24.3511ZM17.2842 20.8878L24.0808 17.7828L17.2842 14.6539V20.8878Z" fill="white"/>
</svg>
